<?xml version="1.0" encoding="UTF-8" standalone="no"?>
<!-- Created with Inkscape (http://www.inkscape.org/) -->

<svg
   xmlns:dc="http://purl.org/dc/elements/1.1/"
   xmlns:cc="http://creativecommons.org/ns#"
   xmlns:rdf="http://www.w3.org/1999/02/22-rdf-syntax-ns#"
   xmlns:svg="http://www.w3.org/2000/svg"
   xmlns="http://www.w3.org/2000/svg"
   xmlns:xlink="http://www.w3.org/1999/xlink"
   xmlns:sodipodi="http://sodipodi.sourceforge.net/DTD/sodipodi-0.dtd"
   xmlns:inkscape="http://www.inkscape.org/namespaces/inkscape"
   width="65"
   height="49"
   viewBox="0 0 65.000002 48.999998"
   id="svg2"
   version="1.1"
   inkscape:version="0.91 r13725"
   sodipodi:docname="Pillow.svg">
  <defs
     id="defs4" />
  <sodipodi:namedview
     id="base"
     pagecolor="#ffffff"
     bordercolor="#666666"
     borderopacity="1.0"
     inkscape:pageopacity="0.0"
     inkscape:pageshadow="2"
     inkscape:zoom="13.640729"
     inkscape:cx="32.500095"
     inkscape:cy="24.412189"
     inkscape:document-units="px"
     inkscape:current-layer="layer1"
     showgrid="true"
     fit-margin-top="0"
     fit-margin-left="0"
     fit-margin-right="0"
     fit-margin-bottom="0"
     inkscape:object-paths="true"
     inkscape:object-nodes="true"
     inkscape:snap-smooth-nodes="true"
     inkscape:snap-intersection-paths="true"
     inkscape:window-width="1600"
     inkscape:window-height="839"
     inkscape:window-x="0"
     inkscape:window-y="0"
     inkscape:window-maximized="1"
     units="px">
    <inkscape:grid
       type="xygrid"
       id="grid4143"
       empspacing="4"
       originx="-335.49987"
       originy="-727.67565" />
  </sodipodi:namedview>
  <metadata
     id="metadata7">
    <rdf:RDF>
      <cc:Work
         rdf:about="">
        <dc:format>image/svg+xml</dc:format>
        <dc:type
           rdf:resource="http://purl.org/dc/dcmitype/StillImage" />
        <dc:title></dc:title>
      </cc:Work>
    </rdf:RDF>
  </metadata>
  <g
     inkscape:label="Layer 1"
     inkscape:groupmode="layer"
     id="layer1"
     transform="translate(-335.49987,-275.68655)">
    <path
       style="color:#000000;clip-rule:nonzero;display:inline;overflow:visible;visibility:visible;opacity:1;isolation:auto;mix-blend-mode:normal;color-interpolation:sRGB;color-interpolation-filters:linearRGB;solid-color:#000000;solid-opacity:1;fill:#ffffff;fill-opacity:1;fill-rule:evenodd;stroke:#000000;stroke-width:1;stroke-linecap:butt;stroke-linejoin:miter;stroke-miterlimit:4;stroke-dasharray:none;stroke-dashoffset:0;stroke-opacity:1;color-rendering:auto;image-rendering:auto;shape-rendering:auto;text-rendering:auto;enable-background:accumulate"
       d="m 336.28886,276.6511 c 3.71115,-0.28887 7.71115,-0.28887 7.71115,3.71113 4,-4 15.59008,-3.51701 23.81274,-3.61058 8.83574,-0.10055 20.18726,-0.38942 24.18726,3.61058 0,-4 4,-4 8,-4 0,4 0,8 -4,8 4,4 3.71113,13.03611 3.71113,16.00001 0,2.96388 -0.8283,13.0361 -3.71113,15.99999 4,0 4,4 3.71113,7.71114 -3.71113,0.28886 -7.71113,0.28886 -7.71113,-3.71114 -2.88284,2.9639 -12.46869,3.71114 -24.00001,3.71114 -11.53132,0 -21.11715,-0.74724 -23.99999,-3.71114 0,4 -4,4 -7.71115,3.71114 -0.37219,-3.78467 -0.28885,-7.71114 3.71115,-7.71114 -2.88283,-2.96389 -4,-12 -4,-16 0,-4.01042 0,-12 4,-16 -4,0 -4,-4 -3.71115,-7.71113 z"
       id="rect4136"
       inkscape:connector-curvature="0"
       sodipodi:nodetypes="ccscccscccscccscc" />
    <use
       x="0"
       y="0"
       xlink:href="#rect4136"
       id="use4764"
       width="100%"
       height="100%" />
  </g>
</svg>
